<svg width="121" height="40" viewBox="0 0 121 40" fill="none" xmlns="http://www.w3.org/2000/svg">
<path d="M30.75 20C30.75 14.48 26.27 10 20.75 10C15.23 10 10.75 14.48 10.75 20C10.75 24.84 14.19 28.87 18.75 29.8V23H16.75V20H18.75V17.5C18.75 15.57 20.32 14 22.25 14H24.75V17H22.75C22.2 17 21.75 17.45 21.75 18V20H24.75V23H21.75V29.95C26.8 29.45 30.75 25.19 30.75 20Z" fill="#939597"/>
<path d="M48.9153 25V15.816H54.2073V16.796H50.0773V19.904H53.5773V20.884H50.0773V25H48.9153ZM56.8957 19.862L56.4617 21.262H59.2197L58.7857 19.862C58.6177 19.3487 58.459 18.84 58.3097 18.336C58.1604 17.8227 58.011 17.3 57.8617 16.768H57.8057C57.6657 17.3 57.521 17.8227 57.3717 18.336C57.2224 18.84 57.0637 19.3487 56.8957 19.862ZM54.0957 25L57.2037 15.816H58.5197L61.6277 25H60.3817L59.5137 22.2H56.1677L55.2857 25H54.0957ZM66.2642 25.168C65.6856 25.168 65.1536 25.0607 64.6682 24.846C64.1829 24.6313 63.7582 24.3233 63.3942 23.922C63.0396 23.5113 62.7596 23.012 62.5542 22.424C62.3582 21.8267 62.2602 21.1547 62.2602 20.408C62.2602 19.6707 62.3629 19.008 62.5682 18.42C62.7736 17.832 63.0582 17.3327 63.4222 16.922C63.7862 16.5113 64.2156 16.1987 64.7102 15.984C65.2049 15.76 65.7462 15.648 66.3342 15.648C66.8942 15.648 67.3842 15.7647 67.8042 15.998C68.2336 16.222 68.5836 16.4833 68.8542 16.782L68.2242 17.538C67.9816 17.2767 67.7062 17.0667 67.3982 16.908C67.0902 16.7493 66.7402 16.67 66.3482 16.67C65.9096 16.67 65.5129 16.7587 65.1582 16.936C64.8036 17.104 64.5002 17.3513 64.2482 17.678C63.9962 17.9953 63.8002 18.3827 63.6602 18.84C63.5296 19.2973 63.4642 19.8107 63.4642 20.38C63.4642 20.9587 63.5296 21.4813 63.6602 21.948C63.8002 22.4053 63.9916 22.7973 64.2342 23.124C64.4769 23.4507 64.7709 23.7027 65.1162 23.88C65.4709 24.0573 65.8676 24.146 66.3062 24.146C66.7542 24.146 67.1462 24.0573 67.4822 23.88C67.8182 23.6933 68.1356 23.4367 68.4342 23.11L69.0782 23.838C68.7142 24.258 68.3036 24.5847 67.8462 24.818C67.3889 25.0513 66.8616 25.168 66.2642 25.168ZM70.7903 25V15.816H76.0823V16.796H71.9523V19.68H75.4383V20.674H71.9523V24.006H76.2223V25H70.7903ZM78.1731 25V15.816H80.9031C81.3698 15.816 81.7944 15.858 82.1771 15.942C82.5691 16.026 82.9004 16.1567 83.1711 16.334C83.4511 16.5113 83.6658 16.7447 83.8151 17.034C83.9738 17.314 84.0531 17.6547 84.0531 18.056C84.0531 18.5133 83.9364 18.9287 83.7031 19.302C83.4791 19.666 83.1478 19.918 82.7091 20.058V20.114C83.2691 20.2167 83.7218 20.45 84.0671 20.814C84.4124 21.178 84.5851 21.6773 84.5851 22.312C84.5851 22.76 84.5011 23.152 84.3331 23.488C84.1651 23.824 83.9271 24.104 83.6191 24.328C83.3111 24.552 82.9424 24.72 82.5131 24.832C82.0838 24.944 81.6124 25 81.0991 25H78.1731ZM79.3351 19.722H80.6931C81.4771 19.722 82.0418 19.5867 82.3871 19.316C82.7324 19.0453 82.9051 18.6767 82.9051 18.21C82.9051 17.678 82.7231 17.3 82.3591 17.076C82.0044 16.852 81.4678 16.74 80.7491 16.74H79.3351V19.722ZM79.3351 24.076H80.9311C81.7244 24.076 82.3404 23.9313 82.7791 23.642C83.2178 23.3433 83.4371 22.886 83.4371 22.27C83.4371 21.7007 83.2224 21.2853 82.7931 21.024C82.3638 20.7533 81.7431 20.618 80.9311 20.618H79.3351V24.076ZM89.7916 25.168C89.2129 25.168 88.6809 25.056 88.1956 24.832C87.7196 24.608 87.3089 24.2907 86.9636 23.88C86.6182 23.46 86.3476 22.956 86.1516 22.368C85.9649 21.7707 85.8716 21.1033 85.8716 20.366C85.8716 19.6287 85.9649 18.9707 86.1516 18.392C86.3476 17.804 86.6182 17.3093 86.9636 16.908C87.3089 16.4973 87.7196 16.1847 88.1956 15.97C88.6809 15.7553 89.2129 15.648 89.7916 15.648C90.3702 15.648 90.8976 15.76 91.3736 15.984C91.8589 16.1987 92.2742 16.5113 92.6196 16.922C92.9742 17.3233 93.2449 17.818 93.4316 18.406C93.6276 18.9847 93.7256 19.638 93.7256 20.366C93.7256 21.1033 93.6276 21.7707 93.4316 22.368C93.2449 22.956 92.9742 23.46 92.6196 23.88C92.2742 24.2907 91.8589 24.608 91.3736 24.832C90.8976 25.056 90.3702 25.168 89.7916 25.168ZM89.7916 24.146C90.2022 24.146 90.5709 24.0573 90.8976 23.88C91.2336 23.7027 91.5182 23.4507 91.7516 23.124C91.9942 22.788 92.1809 22.3913 92.3116 21.934C92.4422 21.4673 92.5076 20.9447 92.5076 20.366C92.5076 19.7967 92.4422 19.2833 92.3116 18.826C92.1809 18.3687 91.9942 17.9813 91.7516 17.664C91.5182 17.3467 91.2336 17.104 90.8976 16.936C90.5709 16.7587 90.2022 16.67 89.7916 16.67C89.3809 16.67 89.0076 16.7587 88.6716 16.936C88.3449 17.104 88.0602 17.3467 87.8176 17.664C87.5842 17.9813 87.4022 18.3687 87.2716 18.826C87.1409 19.2833 87.0756 19.7967 87.0756 20.366C87.0756 20.9447 87.1409 21.4673 87.2716 21.934C87.4022 22.3913 87.5842 22.788 87.8176 23.124C88.0602 23.4507 88.3449 23.7027 88.6716 23.88C89.0076 24.0573 89.3809 24.146 89.7916 24.146ZM99.0884 25.168C98.5098 25.168 97.9778 25.056 97.4924 24.832C97.0164 24.608 96.6058 24.2907 96.2604 23.88C95.9151 23.46 95.6444 22.956 95.4484 22.368C95.2618 21.7707 95.1684 21.1033 95.1684 20.366C95.1684 19.6287 95.2618 18.9707 95.4484 18.392C95.6444 17.804 95.9151 17.3093 96.2604 16.908C96.6058 16.4973 97.0164 16.1847 97.4924 15.97C97.9778 15.7553 98.5098 15.648 99.0884 15.648C99.6671 15.648 100.194 15.76 100.67 15.984C101.156 16.1987 101.571 16.5113 101.916 16.922C102.271 17.3233 102.542 17.818 102.728 18.406C102.924 18.9847 103.022 19.638 103.022 20.366C103.022 21.1033 102.924 21.7707 102.728 22.368C102.542 22.956 102.271 23.46 101.916 23.88C101.571 24.2907 101.156 24.608 100.67 24.832C100.194 25.056 99.6671 25.168 99.0884 25.168ZM99.0884 24.146C99.4991 24.146 99.8678 24.0573 100.194 23.88C100.53 23.7027 100.815 23.4507 101.048 23.124C101.291 22.788 101.478 22.3913 101.608 21.934C101.739 21.4673 101.804 20.9447 101.804 20.366C101.804 19.7967 101.739 19.2833 101.608 18.826C101.478 18.3687 101.291 17.9813 101.048 17.664C100.815 17.3467 100.53 17.104 100.194 16.936C99.8678 16.7587 99.4991 16.67 99.0884 16.67C98.6778 16.67 98.3044 16.7587 97.9684 16.936C97.6418 17.104 97.3571 17.3467 97.1144 17.664C96.8811 17.9813 96.6991 18.3687 96.5684 18.826C96.4378 19.2833 96.3724 19.7967 96.3724 20.366C96.3724 20.9447 96.4378 21.4673 96.5684 21.934C96.6991 22.3913 96.8811 22.788 97.1144 23.124C97.3571 23.4507 97.6418 23.7027 97.9684 23.88C98.3044 24.0573 98.6778 24.146 99.0884 24.146ZM104.997 25V15.816H106.159V20.422H106.201L110.023 15.816H111.339L108.469 19.316L111.787 25H110.485L107.741 20.226L106.159 22.088V25H104.997Z" fill="#939597"/>
</svg>
