<svg width="121" height="40" viewBox="0 0 121 40" fill="none" xmlns="http://www.w3.org/2000/svg">
<path d="M28.295 18.239V22.06H33.74C33.028 24.375 31.093 26.032 28.295 26.032C24.963 26.032 22.262 23.331 22.262 20C22.262 16.669 24.963 13.968 28.295 13.968C29.793 13.968 31.161 14.517 32.216 15.421L35.03 12.607C33.253 10.988 30.889 10 28.295 10C22.771 10 18.293 14.477 18.293 20C18.293 25.523 22.771 30 28.295 30C36.691 30 38.544 22.15 37.721 18.252L28.295 18.239Z" fill="#939597"/>
<path d="M59.5888 25.168C58.9821 25.168 58.4221 25.0607 57.9088 24.846C57.4048 24.6313 56.9708 24.3233 56.6068 23.922C56.2428 23.5113 55.9581 23.012 55.7528 22.424C55.5475 21.8267 55.4448 21.1547 55.4448 20.408C55.4448 19.6707 55.5475 19.008 55.7528 18.42C55.9675 17.832 56.2615 17.3327 56.6348 16.922C57.0081 16.5113 57.4515 16.1987 57.9648 15.984C58.4875 15.76 59.0521 15.648 59.6588 15.648C59.9761 15.648 60.2655 15.6807 60.5268 15.746C60.7975 15.8113 61.0401 15.9 61.2548 16.012C61.4788 16.1147 61.6748 16.236 61.8428 16.376C62.0201 16.5067 62.1741 16.642 62.3048 16.782L61.6608 17.538C61.4275 17.2953 61.1568 17.09 60.8488 16.922C60.5408 16.754 60.1535 16.67 59.6868 16.67C59.2201 16.67 58.8001 16.7587 58.4268 16.936C58.0535 17.104 57.7361 17.3513 57.4748 17.678C57.2135 17.9953 57.0081 18.3827 56.8588 18.84C56.7188 19.2973 56.6488 19.8107 56.6488 20.38C56.6488 20.9587 56.7141 21.4813 56.8448 21.948C56.9848 22.4053 57.1808 22.7973 57.4328 23.124C57.6941 23.4507 58.0115 23.7027 58.3848 23.88C58.7675 24.0573 59.2061 24.146 59.7008 24.146C60.0275 24.146 60.3355 24.0993 60.6248 24.006C60.9235 23.9033 61.1661 23.768 61.3528 23.6V21.206H59.4068V20.24H62.4168V24.104C62.1181 24.412 61.7261 24.6687 61.2408 24.874C60.7555 25.07 60.2048 25.168 59.5888 25.168ZM68.0054 25.168C67.4268 25.168 66.8948 25.056 66.4094 24.832C65.9334 24.608 65.5228 24.2907 65.1774 23.88C64.8321 23.46 64.5614 22.956 64.3654 22.368C64.1788 21.7707 64.0854 21.1033 64.0854 20.366C64.0854 19.6287 64.1788 18.9707 64.3654 18.392C64.5614 17.804 64.8321 17.3093 65.1774 16.908C65.5228 16.4973 65.9334 16.1847 66.4094 15.97C66.8948 15.7553 67.4268 15.648 68.0054 15.648C68.5841 15.648 69.1114 15.76 69.5874 15.984C70.0728 16.1987 70.4881 16.5113 70.8334 16.922C71.1881 17.3233 71.4588 17.818 71.6454 18.406C71.8414 18.9847 71.9394 19.638 71.9394 20.366C71.9394 21.1033 71.8414 21.7707 71.6454 22.368C71.4588 22.956 71.1881 23.46 70.8334 23.88C70.4881 24.2907 70.0728 24.608 69.5874 24.832C69.1114 25.056 68.5841 25.168 68.0054 25.168ZM68.0054 24.146C68.4161 24.146 68.7848 24.0573 69.1114 23.88C69.4474 23.7027 69.7321 23.4507 69.9654 23.124C70.2081 22.788 70.3948 22.3913 70.5254 21.934C70.6561 21.4673 70.7214 20.9447 70.7214 20.366C70.7214 19.7967 70.6561 19.2833 70.5254 18.826C70.3948 18.3687 70.2081 17.9813 69.9654 17.664C69.7321 17.3467 69.4474 17.104 69.1114 16.936C68.7848 16.7587 68.4161 16.67 68.0054 16.67C67.5948 16.67 67.2214 16.7587 66.8854 16.936C66.5588 17.104 66.2741 17.3467 66.0314 17.664C65.7981 17.9813 65.6161 18.3687 65.4854 18.826C65.3548 19.2833 65.2894 19.7967 65.2894 20.366C65.2894 20.9447 65.3548 21.4673 65.4854 21.934C65.6161 22.3913 65.7981 22.788 66.0314 23.124C66.2741 23.4507 66.5588 23.7027 66.8854 23.88C67.2214 24.0573 67.5948 24.146 68.0054 24.146ZM77.3023 25.168C76.7236 25.168 76.1916 25.056 75.7063 24.832C75.2303 24.608 74.8196 24.2907 74.4743 23.88C74.129 23.46 73.8583 22.956 73.6623 22.368C73.4756 21.7707 73.3823 21.1033 73.3823 20.366C73.3823 19.6287 73.4756 18.9707 73.6623 18.392C73.8583 17.804 74.129 17.3093 74.4743 16.908C74.8196 16.4973 75.2303 16.1847 75.7063 15.97C76.1916 15.7553 76.7236 15.648 77.3023 15.648C77.881 15.648 78.4083 15.76 78.8843 15.984C79.3696 16.1987 79.785 16.5113 80.1303 16.922C80.485 17.3233 80.7556 17.818 80.9423 18.406C81.1383 18.9847 81.2363 19.638 81.2363 20.366C81.2363 21.1033 81.1383 21.7707 80.9423 22.368C80.7556 22.956 80.485 23.46 80.1303 23.88C79.785 24.2907 79.3696 24.608 78.8843 24.832C78.4083 25.056 77.881 25.168 77.3023 25.168ZM77.3023 24.146C77.713 24.146 78.0816 24.0573 78.4083 23.88C78.7443 23.7027 79.029 23.4507 79.2623 23.124C79.505 22.788 79.6916 22.3913 79.8223 21.934C79.953 21.4673 80.0183 20.9447 80.0183 20.366C80.0183 19.7967 79.953 19.2833 79.8223 18.826C79.6916 18.3687 79.505 17.9813 79.2623 17.664C79.029 17.3467 78.7443 17.104 78.4083 16.936C78.0816 16.7587 77.713 16.67 77.3023 16.67C76.8916 16.67 76.5183 16.7587 76.1823 16.936C75.8556 17.104 75.571 17.3467 75.3283 17.664C75.095 17.9813 74.913 18.3687 74.7823 18.826C74.6516 19.2833 74.5863 19.7967 74.5863 20.366C74.5863 20.9447 74.6516 21.4673 74.7823 21.934C74.913 22.3913 75.095 22.788 75.3283 23.124C75.571 23.4507 75.8556 23.7027 76.1823 23.88C76.5183 24.0573 76.8916 24.146 77.3023 24.146ZM86.8232 25.168C86.2165 25.168 85.6565 25.0607 85.1432 24.846C84.6392 24.6313 84.2052 24.3233 83.8412 23.922C83.4772 23.5113 83.1925 23.012 82.9872 22.424C82.7818 21.8267 82.6792 21.1547 82.6792 20.408C82.6792 19.6707 82.7818 19.008 82.9872 18.42C83.2018 17.832 83.4958 17.3327 83.8692 16.922C84.2425 16.5113 84.6858 16.1987 85.1992 15.984C85.7218 15.76 86.2865 15.648 86.8932 15.648C87.2105 15.648 87.4998 15.6807 87.7612 15.746C88.0318 15.8113 88.2745 15.9 88.4892 16.012C88.7132 16.1147 88.9092 16.236 89.0772 16.376C89.2545 16.5067 89.4085 16.642 89.5392 16.782L88.8952 17.538C88.6618 17.2953 88.3912 17.09 88.0832 16.922C87.7752 16.754 87.3878 16.67 86.9212 16.67C86.4545 16.67 86.0345 16.7587 85.6612 16.936C85.2878 17.104 84.9705 17.3513 84.7092 17.678C84.4478 17.9953 84.2425 18.3827 84.0932 18.84C83.9532 19.2973 83.8832 19.8107 83.8832 20.38C83.8832 20.9587 83.9485 21.4813 84.0792 21.948C84.2192 22.4053 84.4152 22.7973 84.6672 23.124C84.9285 23.4507 85.2458 23.7027 85.6192 23.88C86.0018 24.0573 86.4405 24.146 86.9352 24.146C87.2618 24.146 87.5698 24.0993 87.8592 24.006C88.1578 23.9033 88.4005 23.768 88.5872 23.6V21.206H86.6412V20.24H89.6512V24.104C89.3525 24.412 88.9605 24.6687 88.4752 24.874C87.9898 25.07 87.4392 25.168 86.8232 25.168ZM91.8518 25V15.816H93.0138V24.006H97.0318V25H91.8518ZM98.6604 25V15.816H103.952V16.796H99.8224V19.68H103.308V20.674H99.8224V24.006H104.092V25H98.6604Z" fill="#939597"/>
</svg>
