<svg width="324" height="24" viewBox="0 0 324 24" fill="none" xmlns="http://www.w3.org/2000/svg">
<rect width="90" height="1" transform="matrix(1 0 0 -1 234 10)" fill="#939597"/>
<rect y="8" width="90" height="1" fill="#939597"/>
<path d="M98.984 16V10.168H99.944V12.592C99.944 12.904 99.932 13.248 99.908 13.624C99.892 13.992 99.872 14.364 99.848 14.74H99.896C100.008 14.556 100.136 14.348 100.28 14.116C100.432 13.884 100.56 13.676 100.664 13.492L102.872 10.168H103.796V16H102.836V13.576C102.836 13.264 102.844 12.924 102.86 12.556C102.884 12.18 102.908 11.8 102.932 11.416H102.884C102.772 11.6 102.64 11.812 102.488 12.052C102.344 12.284 102.22 12.488 102.116 12.664L99.896 16H98.984ZM105.433 16.144C105.321 16.144 105.225 16.136 105.145 16.12C105.073 16.104 104.993 16.08 104.905 16.048L105.097 15.136C105.137 15.152 105.177 15.164 105.217 15.172C105.257 15.18 105.305 15.184 105.361 15.184C105.569 15.184 105.737 15.088 105.865 14.896C105.993 14.696 106.085 14.38 106.141 13.948C106.221 13.316 106.297 12.688 106.369 12.064C106.441 11.432 106.513 10.8 106.585 10.168H110.173V16H109.177V10.972H107.365C107.301 11.508 107.237 12.048 107.173 12.592C107.109 13.128 107.045 13.664 106.981 14.2C106.813 15.496 106.297 16.144 105.433 16.144ZM112.144 16V10.168H113.104V12.592C113.104 12.904 113.092 13.248 113.068 13.624C113.052 13.992 113.032 14.364 113.008 14.74H113.056C113.168 14.556 113.296 14.348 113.44 14.116C113.592 13.884 113.72 13.676 113.824 13.492L116.032 10.168H116.956V16H115.996V13.576C115.996 13.264 116.004 12.924 116.02 12.556C116.044 12.18 116.068 11.8 116.092 11.416H116.044C115.932 11.6 115.8 11.812 115.648 12.052C115.504 12.284 115.38 12.488 115.276 12.664L113.056 16H112.144ZM121.332 16V10.168H123.576C123.896 10.168 124.188 10.196 124.452 10.252C124.716 10.308 124.94 10.396 125.124 10.516C125.316 10.628 125.464 10.78 125.568 10.972C125.672 11.156 125.724 11.38 125.724 11.644C125.724 11.972 125.636 12.24 125.46 12.448C125.292 12.656 125.056 12.804 124.752 12.892V12.928C124.92 12.968 125.076 13.024 125.22 13.096C125.372 13.168 125.504 13.26 125.616 13.372C125.728 13.484 125.816 13.62 125.88 13.78C125.944 13.94 125.976 14.124 125.976 14.332C125.976 14.62 125.916 14.868 125.796 15.076C125.684 15.284 125.524 15.46 125.316 15.604C125.116 15.74 124.876 15.84 124.596 15.904C124.316 15.968 124.008 16 123.672 16H121.332ZM122.304 12.616H123.408C123.896 12.616 124.244 12.54 124.452 12.388C124.66 12.228 124.764 12.012 124.764 11.74C124.764 11.468 124.664 11.256 124.464 11.104C124.264 10.952 123.936 10.876 123.48 10.876H122.304V12.616ZM122.304 15.292H123.564C124.044 15.292 124.4 15.204 124.632 15.028C124.872 14.852 124.992 14.6 124.992 14.272C124.992 13.976 124.868 13.744 124.62 13.576C124.372 13.408 124 13.324 123.504 13.324H122.304V15.292ZM129.693 16.144C129.333 16.144 128.989 16.076 128.661 15.94C128.341 15.804 128.057 15.608 127.809 15.352C127.561 15.088 127.361 14.768 127.209 14.392C127.065 14.008 126.993 13.576 126.993 13.096C126.993 12.608 127.065 12.176 127.209 11.8C127.361 11.416 127.561 11.092 127.809 10.828C128.057 10.564 128.341 10.364 128.661 10.228C128.989 10.092 129.333 10.024 129.693 10.024C130.053 10.024 130.393 10.092 130.713 10.228C131.041 10.364 131.329 10.564 131.577 10.828C131.825 11.092 132.021 11.416 132.165 11.8C132.317 12.176 132.393 12.608 132.393 13.096C132.393 13.576 132.317 14.008 132.165 14.392C132.021 14.768 131.825 15.088 131.577 15.352C131.329 15.608 131.041 15.804 130.713 15.94C130.393 16.076 130.053 16.144 129.693 16.144ZM129.693 15.328C129.941 15.328 130.169 15.276 130.377 15.172C130.585 15.06 130.761 14.908 130.905 14.716C131.057 14.516 131.173 14.28 131.253 14.008C131.333 13.736 131.373 13.432 131.373 13.096C131.373 12.76 131.333 12.456 131.253 12.184C131.173 11.904 131.057 11.664 130.905 11.464C130.761 11.264 130.585 11.112 130.377 11.008C130.169 10.896 129.941 10.84 129.693 10.84C129.445 10.84 129.217 10.896 129.009 11.008C128.801 11.112 128.621 11.264 128.469 11.464C128.325 11.664 128.213 11.904 128.133 12.184C128.053 12.456 128.013 12.76 128.013 13.096C128.013 13.432 128.053 13.736 128.133 14.008C128.213 14.28 128.325 14.516 128.469 14.716C128.621 14.908 128.801 15.06 129.009 15.172C129.217 15.276 129.445 15.328 129.693 15.328ZM133.929 16V10.168H134.889V12.592C134.889 12.904 134.877 13.248 134.853 13.624C134.837 13.992 134.817 14.364 134.793 14.74H134.841C134.953 14.556 135.081 14.348 135.225 14.116C135.377 13.884 135.505 13.676 135.609 13.492L137.817 10.168H138.741V16H137.781V13.576C137.781 13.264 137.789 12.924 137.805 12.556C137.829 12.18 137.853 11.8 137.877 11.416H137.829C137.717 11.6 137.585 11.812 137.433 12.052C137.289 12.284 137.165 12.488 137.061 12.664L134.841 16H133.929ZM136.365 9.124C136.029 9.124 135.745 9.072 135.513 8.968C135.281 8.864 135.089 8.728 134.937 8.56C134.785 8.384 134.673 8.188 134.601 7.972C134.529 7.748 134.489 7.52 134.481 7.288H135.297C135.305 7.456 135.325 7.62 135.357 7.78C135.397 7.932 135.457 8.064 135.537 8.176C135.625 8.288 135.733 8.38 135.861 8.452C135.997 8.516 136.165 8.548 136.365 8.548C136.565 8.548 136.729 8.516 136.857 8.452C136.993 8.38 137.101 8.288 137.181 8.176C137.269 8.064 137.329 7.932 137.361 7.78C137.401 7.62 137.425 7.456 137.433 7.288H138.249C138.233 7.52 138.189 7.748 138.117 7.972C138.053 8.188 137.945 8.384 137.793 8.56C137.641 8.728 137.449 8.864 137.217 8.968C136.985 9.072 136.701 9.124 136.365 9.124ZM140.918 16V18.064H140.066L139.958 15.82V15.196H140.246C140.326 15.148 140.402 15.084 140.474 15.004C140.554 14.916 140.626 14.784 140.69 14.608C140.754 14.432 140.818 14.196 140.882 13.9C140.946 13.604 141.006 13.22 141.062 12.748L141.374 10.168H144.998V15.196H145.85V15.82L145.754 18.064H144.902V16H140.918ZM141.926 12.94C141.862 13.516 141.774 13.984 141.662 14.344C141.558 14.704 141.438 14.988 141.302 15.196H144.014V10.972H142.154L141.926 12.94ZM147.101 16V10.168H148.061V12.592C148.061 12.904 148.049 13.248 148.025 13.624C148.009 13.992 147.989 14.364 147.965 14.74H148.013C148.125 14.556 148.253 14.348 148.397 14.116C148.549 13.884 148.677 13.676 148.781 13.492L150.989 10.168H151.913V16H150.953V13.576C150.953 13.264 150.961 12.924 150.977 12.556C151.001 12.18 151.025 11.8 151.049 11.416H151.001C150.889 11.6 150.757 11.812 150.605 12.052C150.461 12.284 150.337 12.488 150.233 12.664L148.013 16H147.101ZM155.17 16V10.972H153.214V10.168H158.11V10.972H156.154V16H155.17ZM161.606 16.144C161.214 16.144 160.846 16.076 160.502 15.94C160.166 15.796 159.87 15.596 159.614 15.34C159.366 15.076 159.17 14.756 159.026 14.38C158.882 14.004 158.81 13.576 158.81 13.096C158.81 12.616 158.882 12.188 159.026 11.812C159.178 11.428 159.374 11.104 159.614 10.84C159.862 10.576 160.142 10.376 160.454 10.24C160.766 10.096 161.09 10.024 161.426 10.024C161.794 10.024 162.122 10.088 162.41 10.216C162.706 10.344 162.95 10.528 163.142 10.768C163.342 11.008 163.494 11.296 163.598 11.632C163.702 11.968 163.754 12.344 163.754 12.76C163.754 12.864 163.75 12.968 163.742 13.072C163.742 13.168 163.734 13.252 163.718 13.324H159.782C159.822 13.948 160.014 14.444 160.358 14.812C160.71 15.172 161.166 15.352 161.726 15.352C162.006 15.352 162.262 15.312 162.494 15.232C162.734 15.144 162.962 15.032 163.178 14.896L163.526 15.544C163.27 15.704 162.986 15.844 162.674 15.964C162.362 16.084 162.006 16.144 161.606 16.144ZM159.77 12.616H162.89C162.89 12.024 162.762 11.576 162.506 11.272C162.258 10.96 161.906 10.804 161.45 10.804C161.242 10.804 161.042 10.844 160.85 10.924C160.666 11.004 160.498 11.124 160.346 11.284C160.194 11.436 160.066 11.624 159.962 11.848C159.866 12.072 159.802 12.328 159.77 12.616ZM169.901 16.144C169.517 16.144 169.157 16.076 168.821 15.94C168.485 15.804 168.193 15.608 167.945 15.352C167.705 15.088 167.513 14.768 167.369 14.392C167.233 14.008 167.165 13.576 167.165 13.096C167.165 12.608 167.241 12.176 167.393 11.8C167.545 11.416 167.749 11.092 168.005 10.828C168.261 10.564 168.557 10.364 168.893 10.228C169.237 10.092 169.597 10.024 169.973 10.024C170.357 10.024 170.685 10.092 170.957 10.228C171.229 10.364 171.469 10.524 171.677 10.708L171.173 11.356C171.005 11.204 170.825 11.08 170.633 10.984C170.449 10.888 170.241 10.84 170.009 10.84C169.745 10.84 169.501 10.896 169.277 11.008C169.053 11.112 168.861 11.264 168.701 11.464C168.541 11.664 168.413 11.904 168.317 12.184C168.229 12.456 168.185 12.76 168.185 13.096C168.185 13.432 168.229 13.736 168.317 14.008C168.405 14.28 168.525 14.516 168.677 14.716C168.837 14.908 169.029 15.06 169.253 15.172C169.477 15.276 169.721 15.328 169.985 15.328C170.257 15.328 170.505 15.272 170.729 15.16C170.961 15.04 171.169 14.9 171.353 14.74L171.785 15.4C171.521 15.632 171.229 15.816 170.909 15.952C170.589 16.08 170.253 16.144 169.901 16.144ZM175.472 16V10.168H180.14V16H179.156V10.972H176.456V16H175.472ZM184.373 16.144C184.013 16.144 183.669 16.076 183.341 15.94C183.021 15.804 182.737 15.608 182.489 15.352C182.241 15.088 182.041 14.768 181.889 14.392C181.745 14.008 181.673 13.576 181.673 13.096C181.673 12.608 181.745 12.176 181.889 11.8C182.041 11.416 182.241 11.092 182.489 10.828C182.737 10.564 183.021 10.364 183.341 10.228C183.669 10.092 184.013 10.024 184.373 10.024C184.733 10.024 185.073 10.092 185.393 10.228C185.721 10.364 186.009 10.564 186.257 10.828C186.505 11.092 186.701 11.416 186.845 11.8C186.997 12.176 187.073 12.608 187.073 13.096C187.073 13.576 186.997 14.008 186.845 14.392C186.701 14.768 186.505 15.088 186.257 15.352C186.009 15.608 185.721 15.804 185.393 15.94C185.073 16.076 184.733 16.144 184.373 16.144ZM184.373 15.328C184.621 15.328 184.849 15.276 185.057 15.172C185.265 15.06 185.441 14.908 185.585 14.716C185.737 14.516 185.853 14.28 185.933 14.008C186.013 13.736 186.053 13.432 186.053 13.096C186.053 12.76 186.013 12.456 185.933 12.184C185.853 11.904 185.737 11.664 185.585 11.464C185.441 11.264 185.265 11.112 185.057 11.008C184.849 10.896 184.621 10.84 184.373 10.84C184.125 10.84 183.897 10.896 183.689 11.008C183.481 11.112 183.301 11.264 183.149 11.464C183.005 11.664 182.893 11.904 182.813 12.184C182.733 12.456 182.693 12.76 182.693 13.096C182.693 13.432 182.733 13.736 182.813 14.008C182.893 14.28 183.005 14.516 183.149 14.716C183.301 14.908 183.481 15.06 183.689 15.172C183.897 15.276 184.125 15.328 184.373 15.328ZM188.609 16V10.168H189.749L190.889 12.904C190.977 13.144 191.065 13.384 191.153 13.624C191.241 13.856 191.329 14.088 191.417 14.32H191.465C191.553 14.088 191.641 13.856 191.729 13.624C191.825 13.384 191.913 13.144 191.993 12.904L193.109 10.168H194.237V16H193.337V13.384C193.337 13.256 193.341 13.108 193.349 12.94C193.357 12.764 193.365 12.588 193.373 12.412C193.389 12.228 193.401 12.048 193.409 11.872C193.425 11.688 193.441 11.52 193.457 11.368H193.409C193.321 11.6 193.229 11.836 193.133 12.076C193.045 12.308 192.957 12.532 192.869 12.748L191.765 15.448H191.105L189.977 12.748C189.889 12.532 189.797 12.308 189.701 12.076C189.613 11.836 189.525 11.6 189.437 11.368H189.389C189.397 11.52 189.405 11.688 189.413 11.872C189.429 12.048 189.441 12.228 189.449 12.412C189.465 12.588 189.477 12.764 189.485 12.94C189.493 13.108 189.497 13.256 189.497 13.384V16H188.609ZM198.471 16.144C198.111 16.144 197.767 16.076 197.439 15.94C197.119 15.804 196.835 15.608 196.587 15.352C196.339 15.088 196.139 14.768 195.987 14.392C195.843 14.008 195.771 13.576 195.771 13.096C195.771 12.608 195.843 12.176 195.987 11.8C196.139 11.416 196.339 11.092 196.587 10.828C196.835 10.564 197.119 10.364 197.439 10.228C197.767 10.092 198.111 10.024 198.471 10.024C198.831 10.024 199.171 10.092 199.491 10.228C199.819 10.364 200.107 10.564 200.355 10.828C200.603 11.092 200.799 11.416 200.943 11.8C201.095 12.176 201.171 12.608 201.171 13.096C201.171 13.576 201.095 14.008 200.943 14.392C200.799 14.768 200.603 15.088 200.355 15.352C200.107 15.608 199.819 15.804 199.491 15.94C199.171 16.076 198.831 16.144 198.471 16.144ZM198.471 15.328C198.719 15.328 198.947 15.276 199.155 15.172C199.363 15.06 199.539 14.908 199.683 14.716C199.835 14.516 199.951 14.28 200.031 14.008C200.111 13.736 200.151 13.432 200.151 13.096C200.151 12.76 200.111 12.456 200.031 12.184C199.951 11.904 199.835 11.664 199.683 11.464C199.539 11.264 199.363 11.112 199.155 11.008C198.947 10.896 198.719 10.84 198.471 10.84C198.223 10.84 197.995 10.896 197.787 11.008C197.579 11.112 197.399 11.264 197.247 11.464C197.103 11.664 196.991 11.904 196.911 12.184C196.831 12.456 196.791 12.76 196.791 13.096C196.791 13.432 196.831 13.736 196.911 14.008C196.991 14.28 197.103 14.516 197.247 14.716C197.399 14.908 197.579 15.06 197.787 15.172C197.995 15.276 198.223 15.328 198.471 15.328ZM209.631 18.064V16H202.707V10.168H203.691V15.196H205.743V10.168H206.691V15.196H208.755V10.168H209.727V15.196H210.579V15.82L210.483 18.064H209.631ZM211.789 16V10.168H212.773V12.316H213.877C214.221 12.316 214.533 12.352 214.813 12.424C215.101 12.496 215.345 12.608 215.545 12.76C215.753 12.904 215.913 13.092 216.025 13.324C216.137 13.548 216.193 13.82 216.193 14.14C216.193 14.468 216.137 14.748 216.025 14.98C215.913 15.212 215.753 15.404 215.545 15.556C215.345 15.708 215.101 15.82 214.813 15.892C214.533 15.964 214.221 16 213.877 16H211.789ZM212.773 15.208H213.769C214.737 15.208 215.221 14.852 215.221 14.14C215.221 13.772 215.101 13.504 214.861 13.336C214.629 13.168 214.265 13.084 213.769 13.084H212.773V15.208ZM222.483 16.144C222.139 16.144 221.819 16.084 221.523 15.964C221.227 15.844 220.967 15.668 220.743 15.436C220.519 15.204 220.335 14.92 220.191 14.584C220.047 14.248 219.959 13.868 219.927 13.444H218.667V16H217.683V10.168H218.667V12.568H219.939C219.987 12.168 220.083 11.812 220.227 11.5C220.379 11.18 220.567 10.912 220.791 10.696C221.015 10.48 221.271 10.316 221.559 10.204C221.847 10.084 222.155 10.024 222.483 10.024C222.827 10.024 223.151 10.092 223.455 10.228C223.767 10.364 224.035 10.564 224.259 10.828C224.491 11.092 224.671 11.416 224.799 11.8C224.935 12.176 225.003 12.608 225.003 13.096C225.003 13.576 224.935 14.008 224.799 14.392C224.671 14.768 224.491 15.088 224.259 15.352C224.035 15.608 223.767 15.804 223.455 15.94C223.151 16.076 222.827 16.144 222.483 16.144ZM222.435 15.328C222.675 15.328 222.891 15.276 223.083 15.172C223.275 15.06 223.435 14.908 223.563 14.716C223.699 14.516 223.803 14.28 223.875 14.008C223.947 13.736 223.983 13.432 223.983 13.096C223.983 12.424 223.843 11.88 223.563 11.464C223.291 11.048 222.915 10.84 222.435 10.84C222.195 10.84 221.979 10.896 221.787 11.008C221.595 11.112 221.427 11.264 221.283 11.464C221.147 11.664 221.039 11.904 220.959 12.184C220.887 12.456 220.851 12.76 220.851 13.096C220.851 13.432 220.887 13.736 220.959 14.008C221.039 14.28 221.147 14.516 221.283 14.716C221.427 14.908 221.595 15.06 221.787 15.172C221.979 15.276 222.195 15.328 222.435 15.328Z" fill="#939597"/>
</svg>
